<?xml version="1.0" encoding="UTF-8" standalone="no"?>
<svg
   width="2474px"
   height="609px"
   viewBox="0 0 2474 609"
   version="1.2"
   id="svg21748"
   sodipodi:docname="pentagrama.svg"
   inkscape:version="1.1.2 (0a00cf5339, 2022-02-04, custom)"
   xmlns:inkscape="http://www.inkscape.org/namespaces/inkscape"
   xmlns:sodipodi="http://sodipodi.sourceforge.net/DTD/sodipodi-0.dtd"
   xmlns="http://www.w3.org/2000/svg"
   xmlns:svg="http://www.w3.org/2000/svg"
   xmlns:rdf="http://www.w3.org/1999/02/22-rdf-syntax-ns#"
   xmlns:cc="http://creativecommons.org/ns#"
   xmlns:dc="http://purl.org/dc/elements/1.1/">
  <defs
     id="defs21752" />
  <sodipodi:namedview
     id="namedview21750"
     pagecolor="#ffffff"
     bordercolor="#666666"
     borderopacity="1.0"
     inkscape:pageshadow="2"
     inkscape:pageopacity="0.0"
     inkscape:pagecheckerboard="0"
     showgrid="false"
     inkscape:zoom="0.46604689"
     inkscape:cx="1370.0338"
     inkscape:cy="408.75716"
     inkscape:window-width="1366"
     inkscape:window-height="724"
     inkscape:window-x="0"
     inkscape:window-y="0"
     inkscape:window-maximized="1"
     inkscape:current-layer="svg21748" />
  <title
     id="title21424">Sin título</title>
  <desc
     id="desc21426">Generated by MuseScore 3.6.2</desc>
  <polyline
     class=""
     fill="none"
     stroke="#000000"
     stroke-width="4.46"
     stroke-linejoin="bevel"
     points="2425.9,413.822 2425.9,515.75"
     id="polyline21428"
     style="fill:#403f4c;stroke:#403f4c" />
  <polyline
     class=""
     fill="none"
     stroke="#000000"
     stroke-width="13.64"
     stroke-linejoin="bevel"
     points="2443.26,413.822 2443.26,515.75"
     id="polyline21430"
     style="fill:#403f4c;stroke:#403f4c" />
  <polyline
     class=""
     fill="none"
     stroke="#000000"
     stroke-width="4.46"
     stroke-linejoin="bevel"
     points="64.5751,413.822 64.5751,515.75"
     id="polyline21432"
     style="fill:#403f4c;stroke:#403f4c" />
  <polyline
     class=""
     fill="none"
     stroke="#000000"
     stroke-width="4.46"
     stroke-linejoin="bevel"
     points="2425.9,153.422 2425.9,415.186"
     id="polyline21434"
     style="fill:#403f4c;stroke:#403f4c" />
  <polyline
     class=""
     fill="none"
     stroke="#000000"
     stroke-width="13.64"
     stroke-linejoin="bevel"
     points="2443.26,153.422 2443.26,415.186"
     id="polyline21436"
     style="fill:#403f4c;stroke:#403f4c" />
  <polyline
     class=""
     fill="none"
     stroke="#000000"
     stroke-width="4.46"
     stroke-linejoin="bevel"
     points="64.5751,153.422 64.5751,415.186"
     id="polyline21438"
     style="fill:#403f4c;stroke:#403f4c" />
  <polyline
     class=""
     fill="none"
     stroke="#000000"
     stroke-width="2.73"
     stroke-linejoin="bevel"
     points="2166.95,415.186 2450.08,415.186"
     id="polyline21440"
     style="fill:#403f4c;stroke:#403f4c" />
  <polyline
     class=""
     fill="none"
     stroke="#000000"
     stroke-width="2.73"
     stroke-linejoin="bevel"
     points="2166.95,439.986 2450.08,439.986"
     id="polyline21442"
     style="fill:#403f4c;stroke:#403f4c" />
  <polyline
     class=""
     fill="none"
     stroke="#000000"
     stroke-width="2.73"
     stroke-linejoin="bevel"
     points="2166.95,464.786 2450.08,464.786"
     id="polyline21444"
     style="fill:#403f4c;stroke:#403f4c" />
  <polyline
     class=""
     fill="none"
     stroke="#000000"
     stroke-width="2.73"
     stroke-linejoin="bevel"
     points="2166.95,489.586 2450.08,489.586"
     id="polyline21446"
     style="fill:#403f4c;stroke:#403f4c" />
  <polyline
     class=""
     fill="none"
     stroke="#000000"
     stroke-width="2.73"
     stroke-linejoin="bevel"
     points="2166.95,514.386 2450.08,514.386"
     id="polyline21448"
     style="fill:#403f4c;stroke:#403f4c" />
  <polyline
     class=""
     fill="none"
     stroke="#000000"
     stroke-width="2.73"
     stroke-linejoin="bevel"
     points="1675.54,415.186 1905.76,415.186"
     id="polyline21450"
     style="fill:#403f4c;stroke:#403f4c" />
  <polyline
     class=""
     fill="none"
     stroke="#000000"
     stroke-width="2.73"
     stroke-linejoin="bevel"
     points="1675.54,439.986 1905.76,439.986"
     id="polyline21452"
     style="fill:#403f4c;stroke:#403f4c" />
  <polyline
     class=""
     fill="none"
     stroke="#000000"
     stroke-width="2.73"
     stroke-linejoin="bevel"
     points="1675.54,464.786 1905.76,464.786"
     id="polyline21454"
     style="fill:#403f4c;stroke:#403f4c" />
  <polyline
     class=""
     fill="none"
     stroke="#000000"
     stroke-width="2.73"
     stroke-linejoin="bevel"
     points="1675.54,489.586 1905.76,489.586"
     id="polyline21456"
     style="fill:#403f4c;stroke:#403f4c" />
  <polyline
     class=""
     fill="none"
     stroke="#000000"
     stroke-width="2.73"
     stroke-linejoin="bevel"
     points="1675.54,514.386 1905.76,514.386"
     id="polyline21458"
     style="fill:#403f4c;stroke:#403f4c" />
  <polyline
     class=""
     fill="none"
     stroke="#000000"
     stroke-width="2.73"
     stroke-linejoin="bevel"
     points="1905.76,415.186 2166.95,415.186"
     id="polyline21460"
     style="fill:#403f4c;stroke:#403f4c" />
  <polyline
     class=""
     fill="none"
     stroke="#000000"
     stroke-width="2.73"
     stroke-linejoin="bevel"
     points="1905.76,439.986 2166.95,439.986"
     id="polyline21462"
     style="fill:#403f4c;stroke:#403f4c" />
  <polyline
     class=""
     fill="none"
     stroke="#000000"
     stroke-width="2.73"
     stroke-linejoin="bevel"
     points="1905.76,464.786 2166.95,464.786"
     id="polyline21464"
     style="fill:#403f4c;stroke:#403f4c" />
  <polyline
     class=""
     fill="none"
     stroke="#000000"
     stroke-width="2.73"
     stroke-linejoin="bevel"
     points="1905.76,489.586 2166.95,489.586"
     id="polyline21466"
     style="fill:#403f4c;stroke:#403f4c" />
  <polyline
     class=""
     fill="none"
     stroke="#000000"
     stroke-width="2.73"
     stroke-linejoin="bevel"
     points="1905.76,514.386 2166.95,514.386"
     id="polyline21468"
     style="fill:#403f4c;stroke:#403f4c" />
  <polyline
     class=""
     fill="none"
     stroke="#000000"
     stroke-width="2.73"
     stroke-linejoin="bevel"
     points="1202.58,415.186 1410.54,415.186"
     id="polyline21470"
     style="fill:#403f4c;stroke:#403f4c" />
  <polyline
     class=""
     fill="none"
     stroke="#000000"
     stroke-width="2.73"
     stroke-linejoin="bevel"
     points="1202.58,439.986 1410.54,439.986"
     id="polyline21472"
     style="fill:#403f4c;stroke:#403f4c" />
  <polyline
     class=""
     fill="none"
     stroke="#000000"
     stroke-width="2.73"
     stroke-linejoin="bevel"
     points="1202.58,464.786 1410.54,464.786"
     id="polyline21474"
     style="fill:#403f4c;stroke:#403f4c" />
  <polyline
     class=""
     fill="none"
     stroke="#000000"
     stroke-width="2.73"
     stroke-linejoin="bevel"
     points="1202.58,489.586 1410.54,489.586"
     id="polyline21476"
     style="fill:#403f4c;stroke:#403f4c" />
  <polyline
     class=""
     fill="none"
     stroke="#000000"
     stroke-width="2.73"
     stroke-linejoin="bevel"
     points="1202.58,514.386 1410.54,514.386"
     id="polyline21478"
     style="fill:#403f4c;stroke:#403f4c" />
  <polyline
     class=""
     fill="none"
     stroke="#000000"
     stroke-width="2.73"
     stroke-linejoin="bevel"
     points="1410.54,415.186 1675.54,415.186"
     id="polyline21480"
     style="fill:#403f4c;stroke:#403f4c" />
  <polyline
     class=""
     fill="none"
     stroke="#000000"
     stroke-width="2.73"
     stroke-linejoin="bevel"
     points="1410.54,439.986 1675.54,439.986"
     id="polyline21482"
     style="fill:#403f4c;stroke:#403f4c" />
  <polyline
     class=""
     fill="none"
     stroke="#000000"
     stroke-width="2.73"
     stroke-linejoin="bevel"
     points="1410.54,464.786 1675.54,464.786"
     id="polyline21484"
     style="fill:#403f4c;stroke:#403f4c" />
  <polyline
     class=""
     fill="none"
     stroke="#000000"
     stroke-width="2.73"
     stroke-linejoin="bevel"
     points="1410.54,489.586 1675.54,489.586"
     id="polyline21486"
     style="fill:#403f4c;stroke:#403f4c" />
  <polyline
     class=""
     fill="none"
     stroke="#000000"
     stroke-width="2.73"
     stroke-linejoin="bevel"
     points="1410.54,514.386 1675.54,514.386"
     id="polyline21488"
     style="fill:#403f4c;stroke:#403f4c" />
  <polyline
     class=""
     fill="none"
     stroke="#000000"
     stroke-width="2.73"
     stroke-linejoin="bevel"
     points="810.481,415.186 1014.37,415.186"
     id="polyline21490"
     style="fill:#403f4c;stroke:#403f4c" />
  <polyline
     class=""
     fill="none"
     stroke="#000000"
     stroke-width="2.73"
     stroke-linejoin="bevel"
     points="810.481,439.986 1014.37,439.986"
     id="polyline21492"
     style="fill:#403f4c;stroke:#403f4c" />
  <polyline
     class=""
     fill="none"
     stroke="#000000"
     stroke-width="2.73"
     stroke-linejoin="bevel"
     points="810.481,464.786 1014.37,464.786"
     id="polyline21494"
     style="fill:#403f4c;stroke:#403f4c" />
  <polyline
     class=""
     fill="none"
     stroke="#000000"
     stroke-width="2.73"
     stroke-linejoin="bevel"
     points="810.481,489.586 1014.37,489.586"
     id="polyline21496"
     style="fill:#403f4c;stroke:#403f4c" />
  <polyline
     class=""
     fill="none"
     stroke="#000000"
     stroke-width="2.73"
     stroke-linejoin="bevel"
     points="810.481,514.386 1014.37,514.386"
     id="polyline21498"
     style="fill:#403f4c;stroke:#403f4c" />
  <polyline
     class=""
     fill="none"
     stroke="#000000"
     stroke-width="2.73"
     stroke-linejoin="bevel"
     points="1014.37,415.186 1202.58,415.186"
     id="polyline21500"
     style="fill:#403f4c;stroke:#403f4c" />
  <polyline
     class=""
     fill="none"
     stroke="#000000"
     stroke-width="2.73"
     stroke-linejoin="bevel"
     points="1014.37,439.986 1202.58,439.986"
     id="polyline21502"
     style="fill:#403f4c;stroke:#403f4c" />
  <polyline
     class=""
     fill="none"
     stroke="#000000"
     stroke-width="2.73"
     stroke-linejoin="bevel"
     points="1014.37,464.786 1202.58,464.786"
     id="polyline21504"
     style="fill:#403f4c;stroke:#403f4c" />
  <polyline
     class=""
     fill="none"
     stroke="#000000"
     stroke-width="2.73"
     stroke-linejoin="bevel"
     points="1014.37,489.586 1202.58,489.586"
     id="polyline21506"
     style="fill:#403f4c;stroke:#403f4c" />
  <polyline
     class=""
     fill="none"
     stroke="#000000"
     stroke-width="2.73"
     stroke-linejoin="bevel"
     points="1014.37,514.386 1202.58,514.386"
     id="polyline21508"
     style="fill:#403f4c;stroke:#403f4c" />
  <polyline
     class=""
     fill="none"
     stroke="#000000"
     stroke-width="2.73"
     stroke-linejoin="bevel"
     points="434.048,415.186 622.265,415.186"
     id="polyline21510"
     style="fill:#403f4c;stroke:#403f4c" />
  <polyline
     class=""
     fill="none"
     stroke="#000000"
     stroke-width="2.73"
     stroke-linejoin="bevel"
     points="434.048,439.986 622.265,439.986"
     id="polyline21512"
     style="fill:#403f4c;stroke:#403f4c" />
  <polyline
     class=""
     fill="none"
     stroke="#000000"
     stroke-width="2.73"
     stroke-linejoin="bevel"
     points="434.048,464.786 622.265,464.786"
     id="polyline21514"
     style="fill:#403f4c;stroke:#403f4c" />
  <polyline
     class=""
     fill="none"
     stroke="#000000"
     stroke-width="2.73"
     stroke-linejoin="bevel"
     points="434.048,489.586 622.265,489.586"
     id="polyline21516"
     style="fill:#403f4c;stroke:#403f4c" />
  <polyline
     class=""
     fill="none"
     stroke="#000000"
     stroke-width="2.73"
     stroke-linejoin="bevel"
     points="434.048,514.386 622.265,514.386"
     id="polyline21518"
     style="fill:#403f4c;stroke:#403f4c" />
  <polyline
     class=""
     fill="none"
     stroke="#000000"
     stroke-width="2.73"
     stroke-linejoin="bevel"
     points="622.265,415.186 810.481,415.186"
     id="polyline21520"
     style="fill:#403f4c;stroke:#403f4c" />
  <polyline
     class=""
     fill="none"
     stroke="#000000"
     stroke-width="2.73"
     stroke-linejoin="bevel"
     points="622.265,439.986 810.481,439.986"
     id="polyline21522"
     style="fill:#403f4c;stroke:#403f4c" />
  <polyline
     class=""
     fill="none"
     stroke="#000000"
     stroke-width="2.73"
     stroke-linejoin="bevel"
     points="622.265,464.786 810.481,464.786"
     id="polyline21524"
     style="fill:#403f4c;stroke:#403f4c" />
  <polyline
     class=""
     fill="none"
     stroke="#000000"
     stroke-width="2.73"
     stroke-linejoin="bevel"
     points="622.265,489.586 810.481,489.586"
     id="polyline21526"
     style="fill:#403f4c;stroke:#403f4c" />
  <polyline
     class=""
     fill="none"
     stroke="#000000"
     stroke-width="2.73"
     stroke-linejoin="bevel"
     points="622.265,514.386 810.481,514.386"
     id="polyline21528"
     style="fill:#403f4c;stroke:#403f4c" />
  <polyline
     class=""
     fill="none"
     stroke="#000000"
     stroke-width="2.73"
     stroke-linejoin="bevel"
     points="62.3431,415.186 434.048,415.186"
     id="polyline21530"
     style="fill:#403f4c;stroke:#403f4c" />
  <polyline
     class=""
     fill="none"
     stroke="#000000"
     stroke-width="2.73"
     stroke-linejoin="bevel"
     points="62.3431,439.986 434.048,439.986"
     id="polyline21532"
     style="fill:#403f4c;stroke:#403f4c" />
  <polyline
     class=""
     fill="none"
     stroke="#000000"
     stroke-width="2.73"
     stroke-linejoin="bevel"
     points="62.3431,464.786 434.048,464.786"
     id="polyline21534"
     style="fill:#403f4c;stroke:#403f4c" />
  <polyline
     class=""
     fill="none"
     stroke="#000000"
     stroke-width="2.73"
     stroke-linejoin="bevel"
     points="62.3431,489.586 434.048,489.586"
     id="polyline21536"
     style="fill:#403f4c;stroke:#403f4c" />
  <polyline
     class=""
     fill="none"
     stroke="#000000"
     stroke-width="2.73"
     stroke-linejoin="bevel"
     points="62.3431,514.386 434.048,514.386"
     id="polyline21538"
     style="fill:#403f4c;stroke:#403f4c" />
  <polyline
     class=""
     fill="none"
     stroke="#000000"
     stroke-width="2.73"
     stroke-linejoin="bevel"
     points="2166.95,154.786 2450.08,154.786"
     id="polyline21540"
     style="fill:#403f4c;stroke:#403f4c" />
  <polyline
     class=""
     fill="none"
     stroke="#000000"
     stroke-width="2.73"
     stroke-linejoin="bevel"
     points="2166.95,179.586 2450.08,179.586"
     id="polyline21542"
     style="fill:#403f4c;stroke:#403f4c" />
  <polyline
     class=""
     fill="none"
     stroke="#000000"
     stroke-width="2.73"
     stroke-linejoin="bevel"
     points="2166.95,204.386 2450.08,204.386"
     id="polyline21544"
     style="fill:#403f4c;stroke:#403f4c" />
  <polyline
     class=""
     fill="none"
     stroke="#000000"
     stroke-width="2.73"
     stroke-linejoin="bevel"
     points="2166.95,229.186 2450.08,229.186"
     id="polyline21546"
     style="fill:#403f4c;stroke:#403f4c" />
  <polyline
     class=""
     fill="none"
     stroke="#000000"
     stroke-width="2.73"
     stroke-linejoin="bevel"
     points="2166.95,253.986 2450.08,253.986"
     id="polyline21548"
     style="fill:#403f4c;stroke:#403f4c" />
  <polyline
     class=""
     fill="none"
     stroke="#000000"
     stroke-width="2.73"
     stroke-linejoin="bevel"
     points="1675.54,154.786 1905.76,154.786"
     id="polyline21550"
     style="fill:#403f4c;stroke:#403f4c" />
  <polyline
     class=""
     fill="none"
     stroke="#000000"
     stroke-width="2.73"
     stroke-linejoin="bevel"
     points="1675.54,179.586 1905.76,179.586"
     id="polyline21552"
     style="fill:#403f4c;stroke:#403f4c" />
  <polyline
     class=""
     fill="none"
     stroke="#000000"
     stroke-width="2.73"
     stroke-linejoin="bevel"
     points="1675.54,204.386 1905.76,204.386"
     id="polyline21554"
     style="fill:#403f4c;stroke:#403f4c" />
  <polyline
     class=""
     fill="none"
     stroke="#000000"
     stroke-width="2.73"
     stroke-linejoin="bevel"
     points="1675.54,229.186 1905.76,229.186"
     id="polyline21556"
     style="fill:#403f4c;stroke:#403f4c" />
  <polyline
     class=""
     fill="none"
     stroke="#000000"
     stroke-width="2.73"
     stroke-linejoin="bevel"
     points="1675.54,253.986 1905.76,253.986"
     id="polyline21558"
     style="fill:#403f4c;stroke:#403f4c" />
  <polyline
     class=""
     fill="none"
     stroke="#000000"
     stroke-width="2.73"
     stroke-linejoin="bevel"
     points="1905.76,154.786 2166.95,154.786"
     id="polyline21560"
     style="fill:#403f4c;stroke:#403f4c" />
  <polyline
     class=""
     fill="none"
     stroke="#000000"
     stroke-width="2.73"
     stroke-linejoin="bevel"
     points="1905.76,179.586 2166.95,179.586"
     id="polyline21562"
     style="fill:#403f4c;stroke:#403f4c" />
  <polyline
     class=""
     fill="none"
     stroke="#000000"
     stroke-width="2.73"
     stroke-linejoin="bevel"
     points="1905.76,204.386 2166.95,204.386"
     id="polyline21564"
     style="fill:#403f4c;stroke:#403f4c" />
  <polyline
     class=""
     fill="none"
     stroke="#000000"
     stroke-width="2.73"
     stroke-linejoin="bevel"
     points="1905.76,229.186 2166.95,229.186"
     id="polyline21566"
     style="fill:#403f4c;stroke:#403f4c" />
  <polyline
     class=""
     fill="none"
     stroke="#000000"
     stroke-width="2.73"
     stroke-linejoin="bevel"
     points="1905.76,253.986 2166.95,253.986"
     id="polyline21568"
     style="fill:#403f4c;stroke:#403f4c" />
  <polyline
     class=""
     fill="none"
     stroke="#000000"
     stroke-width="2.73"
     stroke-linejoin="bevel"
     points="1202.58,154.786 1410.54,154.786"
     id="polyline21570"
     style="fill:#403f4c;stroke:#403f4c" />
  <polyline
     class=""
     fill="none"
     stroke="#000000"
     stroke-width="2.73"
     stroke-linejoin="bevel"
     points="1202.58,179.586 1410.54,179.586"
     id="polyline21572"
     style="fill:#403f4c;stroke:#403f4c" />
  <polyline
     class=""
     fill="none"
     stroke="#000000"
     stroke-width="2.73"
     stroke-linejoin="bevel"
     points="1202.58,204.386 1410.54,204.386"
     id="polyline21574"
     style="fill:#403f4c;stroke:#403f4c" />
  <polyline
     class=""
     fill="none"
     stroke="#000000"
     stroke-width="2.73"
     stroke-linejoin="bevel"
     points="1202.58,229.186 1410.54,229.186"
     id="polyline21576"
     style="fill:#403f4c;stroke:#403f4c" />
  <polyline
     class=""
     fill="none"
     stroke="#000000"
     stroke-width="2.73"
     stroke-linejoin="bevel"
     points="1202.58,253.986 1410.54,253.986"
     id="polyline21578"
     style="fill:#403f4c;stroke:#403f4c" />
  <polyline
     class=""
     fill="none"
     stroke="#000000"
     stroke-width="2.73"
     stroke-linejoin="bevel"
     points="1410.54,154.786 1675.54,154.786"
     id="polyline21580"
     style="fill:#403f4c;stroke:#403f4c" />
  <polyline
     class=""
     fill="none"
     stroke="#000000"
     stroke-width="2.73"
     stroke-linejoin="bevel"
     points="1410.54,179.586 1675.54,179.586"
     id="polyline21582"
     style="fill:#403f4c;stroke:#403f4c" />
  <polyline
     class=""
     fill="none"
     stroke="#000000"
     stroke-width="2.73"
     stroke-linejoin="bevel"
     points="1410.54,204.386 1675.54,204.386"
     id="polyline21584"
     style="fill:#403f4c;stroke:#403f4c" />
  <polyline
     class=""
     fill="none"
     stroke="#000000"
     stroke-width="2.73"
     stroke-linejoin="bevel"
     points="1410.54,229.186 1675.54,229.186"
     id="polyline21586"
     style="fill:#403f4c;stroke:#403f4c" />
  <polyline
     class=""
     fill="none"
     stroke="#000000"
     stroke-width="2.73"
     stroke-linejoin="bevel"
     points="1410.54,253.986 1675.54,253.986"
     id="polyline21588"
     style="fill:#403f4c;stroke:#403f4c" />
  <polyline
     class=""
     fill="none"
     stroke="#000000"
     stroke-width="2.73"
     stroke-linejoin="bevel"
     points="810.481,154.786 1014.37,154.786"
     id="polyline21590"
     style="fill:#403f4c;stroke:#403f4c" />
  <polyline
     class=""
     fill="none"
     stroke="#000000"
     stroke-width="2.73"
     stroke-linejoin="bevel"
     points="810.481,179.586 1014.37,179.586"
     id="polyline21592"
     style="fill:#403f4c;stroke:#403f4c" />
  <polyline
     class=""
     fill="none"
     stroke="#000000"
     stroke-width="2.73"
     stroke-linejoin="bevel"
     points="810.481,204.386 1014.37,204.386"
     id="polyline21594"
     style="fill:#403f4c;stroke:#403f4c" />
  <polyline
     class=""
     fill="none"
     stroke="#000000"
     stroke-width="2.73"
     stroke-linejoin="bevel"
     points="810.481,229.186 1014.37,229.186"
     id="polyline21596"
     style="fill:#403f4c;stroke:#403f4c" />
  <polyline
     class=""
     fill="none"
     stroke="#000000"
     stroke-width="2.73"
     stroke-linejoin="bevel"
     points="810.481,253.986 1014.37,253.986"
     id="polyline21598"
     style="fill:#403f4c;stroke:#403f4c" />
  <polyline
     class=""
     fill="none"
     stroke="#000000"
     stroke-width="2.73"
     stroke-linejoin="bevel"
     points="1014.37,154.786 1202.58,154.786"
     id="polyline21600"
     style="fill:#403f4c;stroke:#403f4c" />
  <polyline
     class=""
     fill="none"
     stroke="#000000"
     stroke-width="2.73"
     stroke-linejoin="bevel"
     points="1014.37,179.586 1202.58,179.586"
     id="polyline21602"
     style="fill:#403f4c;stroke:#403f4c" />
  <polyline
     class=""
     fill="none"
     stroke="#000000"
     stroke-width="2.73"
     stroke-linejoin="bevel"
     points="1014.37,204.386 1202.58,204.386"
     id="polyline21604"
     style="fill:#403f4c;stroke:#403f4c" />
  <polyline
     class=""
     fill="none"
     stroke="#000000"
     stroke-width="2.73"
     stroke-linejoin="bevel"
     points="1014.37,229.186 1202.58,229.186"
     id="polyline21606"
     style="fill:#403f4c;stroke:#403f4c" />
  <polyline
     class=""
     fill="none"
     stroke="#000000"
     stroke-width="2.73"
     stroke-linejoin="bevel"
     points="1014.37,253.986 1202.58,253.986"
     id="polyline21608"
     style="fill:#403f4c;stroke:#403f4c" />
  <polyline
     class=""
     fill="none"
     stroke="#000000"
     stroke-width="2.73"
     stroke-linejoin="bevel"
     points="434.048,154.786 622.265,154.786"
     id="polyline21610"
     style="fill:#403f4c;stroke:#403f4c" />
  <polyline
     class=""
     fill="none"
     stroke="#000000"
     stroke-width="2.73"
     stroke-linejoin="bevel"
     points="434.048,179.586 622.265,179.586"
     id="polyline21612"
     style="fill:#403f4c;stroke:#403f4c" />
  <polyline
     class=""
     fill="none"
     stroke="#000000"
     stroke-width="2.73"
     stroke-linejoin="bevel"
     points="434.048,204.386 622.265,204.386"
     id="polyline21614"
     style="fill:#403f4c;stroke:#403f4c" />
  <polyline
     class=""
     fill="none"
     stroke="#000000"
     stroke-width="2.73"
     stroke-linejoin="bevel"
     points="434.048,229.186 622.265,229.186"
     id="polyline21616"
     style="fill:#403f4c;stroke:#403f4c" />
  <polyline
     class=""
     fill="none"
     stroke="#000000"
     stroke-width="2.73"
     stroke-linejoin="bevel"
     points="434.048,253.986 622.265,253.986"
     id="polyline21618"
     style="fill:#403f4c;stroke:#403f4c" />
  <polyline
     class=""
     fill="none"
     stroke="#000000"
     stroke-width="2.73"
     stroke-linejoin="bevel"
     points="622.265,154.786 810.481,154.786"
     id="polyline21620"
     style="fill:#403f4c;stroke:#403f4c" />
  <polyline
     class=""
     fill="none"
     stroke="#000000"
     stroke-width="2.73"
     stroke-linejoin="bevel"
     points="622.265,179.586 810.481,179.586"
     id="polyline21622"
     style="fill:#403f4c;stroke:#403f4c" />
  <polyline
     class=""
     fill="none"
     stroke="#000000"
     stroke-width="2.73"
     stroke-linejoin="bevel"
     points="622.265,204.386 810.481,204.386"
     id="polyline21624"
     style="fill:#403f4c;stroke:#403f4c" />
  <polyline
     class=""
     fill="none"
     stroke="#000000"
     stroke-width="2.73"
     stroke-linejoin="bevel"
     points="622.265,229.186 810.481,229.186"
     id="polyline21626"
     style="fill:#403f4c;stroke:#403f4c" />
  <polyline
     class=""
     fill="none"
     stroke="#000000"
     stroke-width="2.73"
     stroke-linejoin="bevel"
     points="622.265,253.986 810.481,253.986"
     id="polyline21628"
     style="fill:#403f4c;stroke:#403f4c" />
  <polyline
     class=""
     fill="none"
     stroke="#000000"
     stroke-width="2.73"
     stroke-linejoin="bevel"
     points="62.3431,154.786 434.048,154.786"
     id="polyline21630"
     style="fill:#403f4c;stroke:#403f4c" />
  <polyline
     class=""
     fill="none"
     stroke="#000000"
     stroke-width="2.73"
     stroke-linejoin="bevel"
     points="62.3431,179.586 434.048,179.586"
     id="polyline21632"
     style="fill:#403f4c;stroke:#403f4c" />
  <polyline
     class=""
     fill="none"
     stroke="#000000"
     stroke-width="2.73"
     stroke-linejoin="bevel"
     points="62.3431,204.386 434.048,204.386"
     id="polyline21634"
     style="fill:#403f4c;stroke:#403f4c" />
  <polyline
     class=""
     fill="none"
     stroke="#000000"
     stroke-width="2.73"
     stroke-linejoin="bevel"
     points="62.3431,229.186 434.048,229.186"
     id="polyline21636"
     style="fill:#403f4c;stroke:#403f4c" />
  <polyline
     class=""
     fill="none"
     stroke="#000000"
     stroke-width="2.73"
     stroke-linejoin="bevel"
     points="62.3431,253.986 434.048,253.986"
     id="polyline21638"
     style="fill:#403f4c;stroke:#403f4c" />
  <path
     class=""
     transform="matrix(0.992,0,0,0.992,2291.77,80.3864)"
     d="M16.5938,-18.2969 C16.4063,-18.5 16.0938,-18.5938 15.7969,-18.5938 C15.7031,-18.5938 15.5,-18.5 15.4063,-18.5 L2.79688,-15 L2.79688,-32.5 L0,-32.5 L0,17 C0,17.7969 0.59375,18.2969 1.40625,18.2969 L1.79688,18.2969 L14.4063,14.7969 L14.4063,32.2969 L17.0938,32.2969 L17.0938,-17.2031 C17.0938,-17.5938 16.9063,-18.0938 16.5938,-18.2969 M14.4063,6.5 L2.79688,9.70313 L2.79688,-6.70313 L14.4063,-10 L14.4063,6.5 "
     id="path21640"
     style="fill:#403f4c;stroke:#403f4c" />
  <path
     class=""
     transform="matrix(0.992,0,0,0.992,1927.34,92.7864)"
     d="M20.0938,-7.90625 C19.5,-11.7969 17.0938,-15.5 12,-15.5 C7,-15.5 4.09375,-12.4063 3.59375,-11.7969 L4,-43.9063 C4,-44.7031 3.40625,-45.2969 2.59375,-45.2969 L1.40625,-45.2969 C0.59375,-45.2969 0,-44.7031 0,-43.9063 L0.5,16.2031 C0.5,17 1.09375,17.5938 1.90625,17.5938 C2.09375,17.5938 2.5,17.5 2.70313,17.4063 C3.09375,17.2031 9.59375,14 15,7.90625 C18.7969,3.59375 20.2969,-1.29688 20.2969,-5.40625 C20.2969,-6.29688 20.2031,-7.09375 20.0938,-7.90625 M13.2031,-4 C13.2031,-2.5 12.7969,2.09375 10.2969,5.90625 C8.59375,8.5 5.20313,11.2031 3.29688,12.7031 L3.59375,-6.79688 C3.79688,-7.70313 5.29688,-10.5938 9.29688,-10.5938 C12.9063,-10.5938 13.2031,-7.20313 13.2031,-5.09375 L13.2031,-4 "
     id="path21642"
     style="fill:#403f4c;stroke:#403f4c" />
  <path
     class=""
     transform="matrix(0.992,0,0,0.992,2030.58,92.7864)"
     d="M16.5938,-18.2969 C16.4063,-18.5 16.0938,-18.5938 15.7969,-18.5938 C15.7031,-18.5938 15.5,-18.5 15.4063,-18.5 L2.79688,-15 L2.79688,-32.5 L0,-32.5 L0,17 C0,17.7969 0.59375,18.2969 1.40625,18.2969 L1.79688,18.2969 L14.4063,14.7969 L14.4063,32.2969 L17.0938,32.2969 L17.0938,-17.2031 C17.0938,-17.5938 16.9063,-18.0938 16.5938,-18.2969 M14.4063,6.5 L2.79688,9.70313 L2.79688,-6.70313 L14.4063,-10 L14.4063,6.5 "
     id="path21644"
     style="fill:#403f4c;stroke:#403f4c" />
  <path
     class=""
     transform="matrix(0.992,0,0,0.992,2188.52,80.3864)"
     d="M20.0938,-7.90625 C19.5,-11.7969 17.0938,-15.5 12,-15.5 C7,-15.5 4.09375,-12.4063 3.59375,-11.7969 L4,-43.9063 C4,-44.7031 3.40625,-45.2969 2.59375,-45.2969 L1.40625,-45.2969 C0.59375,-45.2969 0,-44.7031 0,-43.9063 L0.5,16.2031 C0.5,17 1.09375,17.5938 1.90625,17.5938 C2.09375,17.5938 2.5,17.5 2.70313,17.4063 C3.09375,17.2031 9.59375,14 15,7.90625 C18.7969,3.59375 20.2969,-1.29688 20.2969,-5.40625 C20.2969,-6.29688 20.2031,-7.09375 20.0938,-7.90625 M13.2031,-4 C13.2031,-2.5 12.7969,2.09375 10.2969,5.90625 C8.59375,8.5 5.20313,11.2031 3.29688,12.7031 L3.59375,-6.79688 C3.79688,-7.70313 5.29688,-10.5938 9.29688,-10.5938 C12.9063,-10.5938 13.2031,-7.20313 13.2031,-5.09375 L13.2031,-4 "
     id="path21646"
     style="fill:#403f4c;stroke:#403f4c" />
  <path
     class=""
     transform="matrix(0.992,0,0,0.992,1697.12,117.586)"
     d="M16.5938,-18.2969 C16.4063,-18.5 16.0938,-18.5938 15.7969,-18.5938 C15.7031,-18.5938 15.5,-18.5 15.4063,-18.5 L2.79688,-15 L2.79688,-32.5 L0,-32.5 L0,17 C0,17.7969 0.59375,18.2969 1.40625,18.2969 L1.79688,18.2969 L14.4063,14.7969 L14.4063,32.2969 L17.0938,32.2969 L17.0938,-17.2031 C17.0938,-17.5938 16.9063,-18.0938 16.5938,-18.2969 M14.4063,6.5 L2.79688,9.70313 L2.79688,-6.70313 L14.4063,-10 L14.4063,6.5 "
     id="path21648"
     style="fill:#403f4c;stroke:#403f4c" />
  <path
     class=""
     transform="matrix(0.992,0,0,0.992,1224.16,154.786)"
     d="M23.2969,-10.5938 C23.9063,-10.7031 24.4063,-11.4063 24.4063,-12 L24.4063,-17.9063 C24.4063,-18.7031 23.7969,-19.2969 23,-19.2969 L22.7969,-19.2969 L19.5,-18.5938 L19.5,-33.5 L16.7031,-33.5 L16.7031,-18 L7.79688,-16.2031 L7.79688,-30.2969 L5,-30.2969 L5,-15.5938 L1.09375,-14.7969 C0.5,-14.7031 0,-14 0,-13.4063 L0,-13.2031 L0,-7.40625 L0,-7.59375 C0,-6.79688 0.59375,-6.20313 1.40625,-6.20313 L1.70313,-6.20313 L5,-6.90625 L5,9.59375 L1.09375,10.4063 C0.5,10.5 0,11.2031 0,11.7969 L0,17.5938 C0,18.4063 0.59375,19 1.40625,19 L1.70313,19 L5,18.2969 L5,33.2031 L7.79688,33.2031 L7.79688,17.7031 L16.7031,15.9063 L16.7031,30 L19.5,30 L19.5,15.2969 L23.2969,14.5938 C23.9063,14.5 24.4063,13.7969 24.4063,13.2031 L24.4063,7.29688 C24.4063,6.5 23.7969,5.90625 23,5.90625 L22.7969,5.90625 L19.5,6.59375 L19.5,-9.90625 L23.2969,-10.5938 M7.79688,9.09375 L7.79688,-7.5 L16.7031,-9.29688 L16.7031,7.20313 L7.79688,9.09375 "
     id="path21650"
     style="fill:#403f4c;stroke:#403f4c" />
  <path
     class=""
     transform="matrix(0.992,0,0,0.992,1432.12,129.986)"
     d="M20.0938,-7.90625 C19.5,-11.7969 17.0938,-15.5 12,-15.5 C7,-15.5 4.09375,-12.4063 3.59375,-11.7969 L4,-43.9063 C4,-44.7031 3.40625,-45.2969 2.59375,-45.2969 L1.40625,-45.2969 C0.59375,-45.2969 0,-44.7031 0,-43.9063 L0.5,16.2031 C0.5,17 1.09375,17.5938 1.90625,17.5938 C2.09375,17.5938 2.5,17.5 2.70313,17.4063 C3.09375,17.2031 9.59375,14 15,7.90625 C18.7969,3.59375 20.2969,-1.29688 20.2969,-5.40625 C20.2969,-6.29688 20.2031,-7.09375 20.0938,-7.90625 M13.2031,-4 C13.2031,-2.5 12.7969,2.09375 10.2969,5.90625 C8.59375,8.5 5.20313,11.2031 3.29688,12.7031 L3.59375,-6.79688 C3.79688,-7.70313 5.29688,-10.5938 9.29688,-10.5938 C12.9063,-10.5938 13.2031,-7.20313 13.2031,-5.09375 L13.2031,-4 "
     id="path21652"
     style="fill:#403f4c;stroke:#403f4c" />
  <path
     class=""
     transform="matrix(0.992,0,0,0.992,1534.09,117.586)"
     d="M20.0938,-7.90625 C19.5,-11.7969 17.0938,-15.5 12,-15.5 C7,-15.5 4.09375,-12.4063 3.59375,-11.7969 L4,-43.9063 C4,-44.7031 3.40625,-45.2969 2.59375,-45.2969 L1.40625,-45.2969 C0.59375,-45.2969 0,-44.7031 0,-43.9063 L0.5,16.2031 C0.5,17 1.09375,17.5938 1.90625,17.5938 C2.09375,17.5938 2.5,17.5 2.70313,17.4063 C3.09375,17.2031 9.59375,14 15,7.90625 C18.7969,3.59375 20.2969,-1.29688 20.2969,-5.40625 C20.2969,-6.29688 20.2031,-7.09375 20.0938,-7.90625 M13.2031,-4 C13.2031,-2.5 12.7969,2.09375 10.2969,5.90625 C8.59375,8.5 5.20313,11.2031 3.29688,12.7031 L3.59375,-6.79688 C3.79688,-7.70313 5.29688,-10.5938 9.29688,-10.5938 C12.9063,-10.5938 13.2031,-7.20313 13.2031,-5.09375 L13.2031,-4 "
     id="path21654"
     style="fill:#403f4c;stroke:#403f4c" />
  <path
     class=""
     transform="matrix(0.992,0,0,0.992,832.057,204.386)"
     d="M20.0938,-7.90625 C19.5,-11.7969 17.0938,-15.5 12,-15.5 C7,-15.5 4.09375,-12.4063 3.59375,-11.7969 L4,-43.9063 C4,-44.7031 3.40625,-45.2969 2.59375,-45.2969 L1.40625,-45.2969 C0.59375,-45.2969 0,-44.7031 0,-43.9063 L0.5,16.2031 C0.5,17 1.09375,17.5938 1.90625,17.5938 C2.09375,17.5938 2.5,17.5 2.70313,17.4063 C3.09375,17.2031 9.59375,14 15,7.90625 C18.7969,3.59375 20.2969,-1.29688 20.2969,-5.40625 C20.2969,-6.29688 20.2031,-7.09375 20.0938,-7.90625 M13.2031,-4 C13.2031,-2.5 12.7969,2.09375 10.2969,5.90625 C8.59375,8.5 5.20313,11.2031 3.29688,12.7031 L3.59375,-6.79688 C3.79688,-7.70313 5.29688,-10.5938 9.29688,-10.5938 C12.9063,-10.5938 13.2031,-7.20313 13.2031,-5.09375 L13.2031,-4 "
     id="path21656"
     style="fill:#403f4c;stroke:#403f4c" />
  <polyline
     class=""
     fill="none"
     stroke="#000000"
     stroke-width="3.97"
     stroke-linejoin="bevel"
     points="533.365,390.386 582.957,390.386"
     id="polyline21658"
     style="fill:#403f4c;stroke:#403f4c" />
  <polyline
     class=""
     fill="none"
     stroke="#000000"
     stroke-width="3.97"
     stroke-linejoin="bevel"
     points="269.392,563.986 318.984,563.986"
     id="polyline21660"
     style="fill:#403f4c;stroke:#403f4c" />
  <polyline
     class=""
     fill="none"
     stroke="#000000"
     stroke-width="3.97"
     stroke-linejoin="bevel"
     points="269.392,539.186 318.984,539.186"
     id="polyline21662"
     style="fill:#403f4c;stroke:#403f4c" />
  <polyline
     class=""
     fill="none"
     stroke="#000000"
     stroke-width="3.97"
     stroke-linejoin="bevel"
     points="2314.93,129.986 2364.52,129.986"
     id="polyline21664"
     style="fill:#403f4c;stroke:#403f4c" />
  <polyline
     class=""
     fill="none"
     stroke="#000000"
     stroke-width="3.97"
     stroke-linejoin="bevel"
     points="2314.93,105.186 2364.52,105.186"
     id="polyline21666"
     style="fill:#403f4c;stroke:#403f4c" />
  <polyline
     class=""
     fill="none"
     stroke="#000000"
     stroke-width="3.97"
     stroke-linejoin="bevel"
     points="2314.93,80.3864 2364.52,80.3864"
     id="polyline21668"
     style="fill:#403f4c;stroke:#403f4c" />
  <polyline
     class=""
     fill="none"
     stroke="#000000"
     stroke-width="3.97"
     stroke-linejoin="bevel"
     points="1953.67,129.986 2003.26,129.986"
     id="polyline21670"
     style="fill:#403f4c;stroke:#403f4c" />
  <polyline
     class=""
     fill="none"
     stroke="#000000"
     stroke-width="3.97"
     stroke-linejoin="bevel"
     points="1953.67,105.186 2003.26,105.186"
     id="polyline21672"
     style="fill:#403f4c;stroke:#403f4c" />
  <polyline
     class=""
     fill="none"
     stroke="#000000"
     stroke-width="3.97"
     stroke-linejoin="bevel"
     points="2053.74,129.986 2103.33,129.986"
     id="polyline21674"
     style="fill:#403f4c;stroke:#403f4c" />
  <polyline
     class=""
     fill="none"
     stroke="#000000"
     stroke-width="3.97"
     stroke-linejoin="bevel"
     points="2053.74,105.186 2103.33,105.186"
     id="polyline21676"
     style="fill:#403f4c;stroke:#403f4c" />
  <polyline
     class=""
     fill="none"
     stroke="#000000"
     stroke-width="3.97"
     stroke-linejoin="bevel"
     points="2214.86,129.986 2264.45,129.986"
     id="polyline21678"
     style="fill:#403f4c;stroke:#403f4c" />
  <polyline
     class=""
     fill="none"
     stroke="#000000"
     stroke-width="3.97"
     stroke-linejoin="bevel"
     points="2214.86,105.186 2264.45,105.186"
     id="polyline21680"
     style="fill:#403f4c;stroke:#403f4c" />
  <polyline
     class=""
     fill="none"
     stroke="#000000"
     stroke-width="3.97"
     stroke-linejoin="bevel"
     points="2214.86,80.3864 2264.45,80.3864"
     id="polyline21682"
     style="fill:#403f4c;stroke:#403f4c" />
  <polyline
     class=""
     fill="none"
     stroke="#000000"
     stroke-width="3.97"
     stroke-linejoin="bevel"
     points="1560.42,129.986 1610.02,129.986"
     id="polyline21684"
     style="fill:#403f4c;stroke:#403f4c" />
  <polyline
     class=""
     fill="none"
     stroke="#000000"
     stroke-width="3.97"
     stroke-linejoin="bevel"
     points="1720.27,129.986 1769.87,129.986"
     id="polyline21686"
     style="fill:#403f4c;stroke:#403f4c" />
  <polyline
     class=""
     fill="none"
     stroke="#000000"
     stroke-width="3.97"
     stroke-linejoin="bevel"
     points="1806.45,129.986 1856.04,129.986"
     id="polyline21688"
     style="fill:#403f4c;stroke:#403f4c" />
  <polyline
     class=""
     fill="none"
     stroke="#000000"
     stroke-width="3.97"
     stroke-linejoin="bevel"
     points="1806.45,105.186 1856.04,105.186"
     id="polyline21690"
     style="fill:#403f4c;stroke:#403f4c" />
  <polyline
     class=""
     fill="none"
     stroke="#000000"
     stroke-width="3.97"
     stroke-linejoin="bevel"
     points="1458.45,129.986 1508.04,129.986"
     id="polyline21692"
     style="fill:#403f4c;stroke:#403f4c" />
  <path
     class=""
     transform="matrix(0.992,0,0,0.992,466.288,427.586)"
     d="M31.5,-8.14063 C29.7031,-11.4375 25.9063,-13.2344 21.2969,-13.2344 C17.9063,-13.2344 14.2031,-12.2344 10.5938,-10.3438 C4,-6.84375 0,-0.9375 0,4.15625 C0,5.5625 0.296875,6.96875 1,8.26563 C2.79688,11.5781 6.59375,13.2813 11.2031,13.2813 C14.5938,13.2813 18.2969,12.375 21.9063,10.4844 C28.5,6.96875 32.5,1.0625 32.5,-4.04688 C32.5,-5.4375 32.2031,-6.84375 31.5,-8.14063 M27.2031,-1.34375 C25.5,0.359375 22.0938,2.45313 18.5,4.46875 C14.9063,6.46875 11.2969,7.96875 8.90625,8.46875 C8.40625,8.57813 7.90625,8.67188 7.40625,8.67188 C5.79688,8.67188 4.59375,8.07813 3.90625,6.76563 C3.59375,6.26563 3.40625,5.67188 3.40625,5.0625 C3.40625,3.96875 4.09375,2.65625 5.20313,1.5625 C6.90625,-0.140625 10.2031,-2.23438 13.7969,-4.23438 C17.4063,-6.23438 21,-7.73438 23.4063,-8.23438 C23.9063,-8.34375 24.4063,-8.4375 24.9063,-8.4375 C26.5,-8.4375 27.7969,-7.84375 28.5,-6.54688 C28.7969,-6.04688 28.9063,-5.4375 28.9063,-4.84375 C28.9063,-3.73438 28.2969,-2.54688 27.2031,-1.34375"
     id="path21694"
     style="fill:#403f4c;stroke:#403f4c" />
  <path
     class=""
     transform="matrix(0.992,0,0,0.992,542.045,390.386)"
     d="M31.5,-8.14063 C29.7031,-11.4375 25.9063,-13.2344 21.2969,-13.2344 C17.9063,-13.2344 14.2031,-12.2344 10.5938,-10.3438 C4,-6.84375 0,-0.9375 0,4.15625 C0,5.5625 0.296875,6.96875 1,8.26563 C2.79688,11.5781 6.59375,13.2813 11.2031,13.2813 C14.5938,13.2813 18.2969,12.375 21.9063,10.4844 C28.5,6.96875 32.5,1.0625 32.5,-4.04688 C32.5,-5.4375 32.2031,-6.84375 31.5,-8.14063 M27.2031,-1.34375 C25.5,0.359375 22.0938,2.45313 18.5,4.46875 C14.9063,6.46875 11.2969,7.96875 8.90625,8.46875 C8.40625,8.57813 7.90625,8.67188 7.40625,8.67188 C5.79688,8.67188 4.59375,8.07813 3.90625,6.76563 C3.59375,6.26563 3.40625,5.67188 3.40625,5.0625 C3.40625,3.96875 4.09375,2.65625 5.20313,1.5625 C6.90625,-0.140625 10.2031,-2.23438 13.7969,-4.23438 C17.4063,-6.23438 21,-7.73438 23.4063,-8.23438 C23.9063,-8.34375 24.4063,-8.4375 24.9063,-8.4375 C26.5,-8.4375 27.7969,-7.84375 28.5,-6.54688 C28.7969,-6.04688 28.9063,-5.4375 28.9063,-4.84375 C28.9063,-3.73438 28.2969,-2.54688 27.2031,-1.34375"
     id="path21696"
     style="fill:#403f4c;stroke:#403f4c" />
  <path
     class=""
     transform="matrix(0.992,0,0,0.992,278.072,563.986)"
     d="M31.5,-8.14063 C29.7031,-11.4375 25.9063,-13.2344 21.2969,-13.2344 C17.9063,-13.2344 14.2031,-12.2344 10.5938,-10.3438 C4,-6.84375 0,-0.9375 0,4.15625 C0,5.5625 0.296875,6.96875 1,8.26563 C2.79688,11.5781 6.59375,13.2813 11.2031,13.2813 C14.5938,13.2813 18.2969,12.375 21.9063,10.4844 C28.5,6.96875 32.5,1.0625 32.5,-4.04688 C32.5,-5.4375 32.2031,-6.84375 31.5,-8.14063 M27.2031,-1.34375 C25.5,0.359375 22.0938,2.45313 18.5,4.46875 C14.9063,6.46875 11.2969,7.96875 8.90625,8.46875 C8.40625,8.57813 7.90625,8.67188 7.40625,8.67188 C5.79688,8.67188 4.59375,8.07813 3.90625,6.76563 C3.59375,6.26563 3.40625,5.67188 3.40625,5.0625 C3.40625,3.96875 4.09375,2.65625 5.20313,1.5625 C6.90625,-0.140625 10.2031,-2.23438 13.7969,-4.23438 C17.4063,-6.23438 21,-7.73438 23.4063,-8.23438 C23.9063,-8.34375 24.4063,-8.4375 24.9063,-8.4375 C26.5,-8.4375 27.7969,-7.84375 28.5,-6.54688 C28.7969,-6.04688 28.9063,-5.4375 28.9063,-4.84375 C28.9063,-3.73438 28.2969,-2.54688 27.2031,-1.34375"
     id="path21698"
     style="fill:#403f4c;stroke:#403f4c" />
  <path
     class=""
     transform="matrix(0.992,0,0,0.992,353.828,477.186)"
     d="M31.5,-8.14063 C29.7031,-11.4375 25.9063,-13.2344 21.2969,-13.2344 C17.9063,-13.2344 14.2031,-12.2344 10.5938,-10.3438 C4,-6.84375 0,-0.9375 0,4.15625 C0,5.5625 0.296875,6.96875 1,8.26563 C2.79688,11.5781 6.59375,13.2813 11.2031,13.2813 C14.5938,13.2813 18.2969,12.375 21.9063,10.4844 C28.5,6.96875 32.5,1.0625 32.5,-4.04688 C32.5,-5.4375 32.2031,-6.84375 31.5,-8.14063 M27.2031,-1.34375 C25.5,0.359375 22.0938,2.45313 18.5,4.46875 C14.9063,6.46875 11.2969,7.96875 8.90625,8.46875 C8.40625,8.57813 7.90625,8.67188 7.40625,8.67188 C5.79688,8.67188 4.59375,8.07813 3.90625,6.76563 C3.59375,6.26563 3.40625,5.67188 3.40625,5.0625 C3.40625,3.96875 4.09375,2.65625 5.20313,1.5625 C6.90625,-0.140625 10.2031,-2.23438 13.7969,-4.23438 C17.4063,-6.23438 21,-7.73438 23.4063,-8.23438 C23.9063,-8.34375 24.4063,-8.4375 24.9063,-8.4375 C26.5,-8.4375 27.7969,-7.84375 28.5,-6.54688 C28.7969,-6.04688 28.9063,-5.4375 28.9063,-4.84375 C28.9063,-3.73438 28.2969,-2.54688 27.2031,-1.34375"
     id="path21700"
     style="fill:#403f4c;stroke:#403f4c" />
  <path
     class=""
     transform="matrix(0.992,0,0,0.992,2323.61,80.3864)"
     d="M31.5,-8.14063 C29.7031,-11.4375 25.9063,-13.2344 21.2969,-13.2344 C17.9063,-13.2344 14.2031,-12.2344 10.5938,-10.3438 C4,-6.84375 0,-0.9375 0,4.15625 C0,5.5625 0.296875,6.96875 1,8.26563 C2.79688,11.5781 6.59375,13.2813 11.2031,13.2813 C14.5938,13.2813 18.2969,12.375 21.9063,10.4844 C28.5,6.96875 32.5,1.0625 32.5,-4.04688 C32.5,-5.4375 32.2031,-6.84375 31.5,-8.14063 M27.2031,-1.34375 C25.5,0.359375 22.0938,2.45313 18.5,4.46875 C14.9063,6.46875 11.2969,7.96875 8.90625,8.46875 C8.40625,8.57813 7.90625,8.67188 7.40625,8.67188 C5.79688,8.67188 4.59375,8.07813 3.90625,6.76563 C3.59375,6.26563 3.40625,5.67188 3.40625,5.0625 C3.40625,3.96875 4.09375,2.65625 5.20313,1.5625 C6.90625,-0.140625 10.2031,-2.23438 13.7969,-4.23438 C17.4063,-6.23438 21,-7.73438 23.4063,-8.23438 C23.9063,-8.34375 24.4063,-8.4375 24.9063,-8.4375 C26.5,-8.4375 27.7969,-7.84375 28.5,-6.54688 C28.7969,-6.04688 28.9063,-5.4375 28.9063,-4.84375 C28.9063,-3.73438 28.2969,-2.54688 27.2031,-1.34375"
     id="path21702"
     style="fill:#403f4c;stroke:#403f4c" />
  <path
     class=""
     transform="matrix(0.992,0,0,0.992,1962.35,92.7864)"
     d="M31.5,-8.09375 C29.7031,-11.4063 25.9063,-13.2031 21.2969,-13.2031 C17.9063,-13.2031 14.2031,-12.2031 10.5938,-10.2969 C4,-6.79688 0,-0.90625 0,4.20313 C0,5.59375 0.296875,7 1,8.29688 C2.79688,11.5938 6.59375,13.2969 11.2031,13.2969 C14.5938,13.2969 18.2969,12.4063 21.9063,10.5 C28.5,7 32.5,1.09375 32.5,-4 C32.5,-5.40625 32.2031,-6.79688 31.5,-8.09375"
     id="path21704"
     style="fill:#403f4c;stroke:#403f4c" />
  <path
     class=""
     transform="matrix(0.992,0,0,0.992,2062.42,92.7864)"
     d="M31.5,-8.14063 C29.7031,-11.4375 25.9063,-13.2344 21.2969,-13.2344 C17.9063,-13.2344 14.2031,-12.2344 10.5938,-10.3438 C4,-6.84375 0,-0.9375 0,4.15625 C0,5.5625 0.296875,6.96875 1,8.26563 C2.79688,11.5781 6.59375,13.2813 11.2031,13.2813 C14.5938,13.2813 18.2969,12.375 21.9063,10.4844 C28.5,6.96875 32.5,1.0625 32.5,-4.04688 C32.5,-5.4375 32.2031,-6.84375 31.5,-8.14063 M27.2031,-1.34375 C25.5,0.359375 22.0938,2.45313 18.5,4.46875 C14.9063,6.46875 11.2969,7.96875 8.90625,8.46875 C8.40625,8.57813 7.90625,8.67188 7.40625,8.67188 C5.79688,8.67188 4.59375,8.07813 3.90625,6.76563 C3.59375,6.26563 3.40625,5.67188 3.40625,5.0625 C3.40625,3.96875 4.09375,2.65625 5.20313,1.5625 C6.90625,-0.140625 10.2031,-2.23438 13.7969,-4.23438 C17.4063,-6.23438 21,-7.73438 23.4063,-8.23438 C23.9063,-8.34375 24.4063,-8.4375 24.9063,-8.4375 C26.5,-8.4375 27.7969,-7.84375 28.5,-6.54688 C28.7969,-6.04688 28.9063,-5.4375 28.9063,-4.84375 C28.9063,-3.73438 28.2969,-2.54688 27.2031,-1.34375"
     id="path21706"
     style="fill:#403f4c;stroke:#403f4c" />
  <path
     class=""
     transform="matrix(0.992,0,0,0.992,2223.54,80.3864)"
     d="M31.5,-8.14063 C29.7031,-11.4375 25.9063,-13.2344 21.2969,-13.2344 C17.9063,-13.2344 14.2031,-12.2344 10.5938,-10.3438 C4,-6.84375 0,-0.9375 0,4.15625 C0,5.5625 0.296875,6.96875 1,8.26563 C2.79688,11.5781 6.59375,13.2813 11.2031,13.2813 C14.5938,13.2813 18.2969,12.375 21.9063,10.4844 C28.5,6.96875 32.5,1.0625 32.5,-4.04688 C32.5,-5.4375 32.2031,-6.84375 31.5,-8.14063 M27.2031,-1.34375 C25.5,0.359375 22.0938,2.45313 18.5,4.46875 C14.9063,6.46875 11.2969,7.96875 8.90625,8.46875 C8.40625,8.57813 7.90625,8.67188 7.40625,8.67188 C5.79688,8.67188 4.59375,8.07813 3.90625,6.76563 C3.59375,6.26563 3.40625,5.67188 3.40625,5.0625 C3.40625,3.96875 4.09375,2.65625 5.20313,1.5625 C6.90625,-0.140625 10.2031,-2.23438 13.7969,-4.23438 C17.4063,-6.23438 21,-7.73438 23.4063,-8.23438 C23.9063,-8.34375 24.4063,-8.4375 24.9063,-8.4375 C26.5,-8.4375 27.7969,-7.84375 28.5,-6.54688 C28.7969,-6.04688 28.9063,-5.4375 28.9063,-4.84375 C28.9063,-3.73438 28.2969,-2.54688 27.2031,-1.34375"
     id="path21708"
     style="fill:#403f4c;stroke:#403f4c" />
  <path
     class=""
     transform="matrix(0.992,0,0,0.992,1569.1,117.586)"
     d="M31.5,-8.09375 C29.7031,-11.4063 25.9063,-13.2031 21.2969,-13.2031 C17.9063,-13.2031 14.2031,-12.2031 10.5938,-10.2969 C4,-6.79688 0,-0.90625 0,4.20313 C0,5.59375 0.296875,7 1,8.29688 C2.79688,11.5938 6.59375,13.2969 11.2031,13.2969 C14.5938,13.2969 18.2969,12.4063 21.9063,10.5 C28.5,7 32.5,1.09375 32.5,-4 C32.5,-5.40625 32.2031,-6.79688 31.5,-8.09375"
     id="path21710"
     style="fill:#403f4c;stroke:#403f4c" />
  <path
     class=""
     transform="matrix(0.992,0,0,0.992,1728.95,117.586)"
     d="M31.5,-8.14063 C29.7031,-11.4375 25.9063,-13.2344 21.2969,-13.2344 C17.9063,-13.2344 14.2031,-12.2344 10.5938,-10.3438 C4,-6.84375 0,-0.9375 0,4.15625 C0,5.5625 0.296875,6.96875 1,8.26563 C2.79688,11.5781 6.59375,13.2813 11.2031,13.2813 C14.5938,13.2813 18.2969,12.375 21.9063,10.4844 C28.5,6.96875 32.5,1.0625 32.5,-4.04688 C32.5,-5.4375 32.2031,-6.84375 31.5,-8.14063 M27.2031,-1.34375 C25.5,0.359375 22.0938,2.45313 18.5,4.46875 C14.9063,6.46875 11.2969,7.96875 8.90625,8.46875 C8.40625,8.57813 7.90625,8.67188 7.40625,8.67188 C5.79688,8.67188 4.59375,8.07813 3.90625,6.76563 C3.59375,6.26563 3.40625,5.67188 3.40625,5.0625 C3.40625,3.96875 4.09375,2.65625 5.20313,1.5625 C6.90625,-0.140625 10.2031,-2.23438 13.7969,-4.23438 C17.4063,-6.23438 21,-7.73438 23.4063,-8.23438 C23.9063,-8.34375 24.4063,-8.4375 24.9063,-8.4375 C26.5,-8.4375 27.7969,-7.84375 28.5,-6.54688 C28.7969,-6.04688 28.9063,-5.4375 28.9063,-4.84375 C28.9063,-3.73438 28.2969,-2.54688 27.2031,-1.34375"
     id="path21712"
     style="fill:#403f4c;stroke:#403f4c" />
  <path
     class=""
     transform="matrix(0.992,0,0,0.992,1815.13,105.186)"
     d="M31.5,-8.14063 C29.7031,-11.4375 25.9063,-13.2344 21.2969,-13.2344 C17.9063,-13.2344 14.2031,-12.2344 10.5938,-10.3438 C4,-6.84375 0,-0.9375 0,4.15625 C0,5.5625 0.296875,6.96875 1,8.26563 C2.79688,11.5781 6.59375,13.2813 11.2031,13.2813 C14.5938,13.2813 18.2969,12.375 21.9063,10.4844 C28.5,6.96875 32.5,1.0625 32.5,-4.04688 C32.5,-5.4375 32.2031,-6.84375 31.5,-8.14063 M27.2031,-1.34375 C25.5,0.359375 22.0938,2.45313 18.5,4.46875 C14.9063,6.46875 11.2969,7.96875 8.90625,8.46875 C8.40625,8.57813 7.90625,8.67188 7.40625,8.67188 C5.79688,8.67188 4.59375,8.07813 3.90625,6.76563 C3.59375,6.26563 3.40625,5.67188 3.40625,5.0625 C3.40625,3.96875 4.09375,2.65625 5.20313,1.5625 C6.90625,-0.140625 10.2031,-2.23438 13.7969,-4.23438 C17.4063,-6.23438 21,-7.73438 23.4063,-8.23438 C23.9063,-8.34375 24.4063,-8.4375 24.9063,-8.4375 C26.5,-8.4375 27.7969,-7.84375 28.5,-6.54688 C28.7969,-6.04688 28.9063,-5.4375 28.9063,-4.84375 C28.9063,-3.73438 28.2969,-2.54688 27.2031,-1.34375"
     id="path21714"
     style="fill:#403f4c;stroke:#403f4c" />
  <path
     class=""
     transform="matrix(0.992,0,0,0.992,1254.56,154.786)"
     d="M31.5,-8.09375 C29.7031,-11.4063 25.9063,-13.2031 21.2969,-13.2031 C17.9063,-13.2031 14.2031,-12.2031 10.5938,-10.2969 C4,-6.79688 0,-0.90625 0,4.20313 C0,5.59375 0.296875,7 1,8.29688 C2.79688,11.5938 6.59375,13.2969 11.2031,13.2969 C14.5938,13.2969 18.2969,12.4063 21.9063,10.5 C28.5,7 32.5,1.09375 32.5,-4 C32.5,-5.40625 32.2031,-6.79688 31.5,-8.09375"
     id="path21716"
     style="fill:#403f4c;stroke:#403f4c" />
  <path
     class=""
     transform="matrix(0.992,0,0,0.992,1330.32,142.386)"
     d="M31.5,-8.14063 C29.7031,-11.4375 25.9063,-13.2344 21.2969,-13.2344 C17.9063,-13.2344 14.2031,-12.2344 10.5938,-10.3438 C4,-6.84375 0,-0.9375 0,4.15625 C0,5.5625 0.296875,6.96875 1,8.26563 C2.79688,11.5781 6.59375,13.2813 11.2031,13.2813 C14.5938,13.2813 18.2969,12.375 21.9063,10.4844 C28.5,6.96875 32.5,1.0625 32.5,-4.04688 C32.5,-5.4375 32.2031,-6.84375 31.5,-8.14063 M27.2031,-1.34375 C25.5,0.359375 22.0938,2.45313 18.5,4.46875 C14.9063,6.46875 11.2969,7.96875 8.90625,8.46875 C8.40625,8.57813 7.90625,8.67188 7.40625,8.67188 C5.79688,8.67188 4.59375,8.07813 3.90625,6.76563 C3.59375,6.26563 3.40625,5.67188 3.40625,5.0625 C3.40625,3.96875 4.09375,2.65625 5.20313,1.5625 C6.90625,-0.140625 10.2031,-2.23438 13.7969,-4.23438 C17.4063,-6.23438 21,-7.73438 23.4063,-8.23438 C23.9063,-8.34375 24.4063,-8.4375 24.9063,-8.4375 C26.5,-8.4375 27.7969,-7.84375 28.5,-6.54688 C28.7969,-6.04688 28.9063,-5.4375 28.9063,-4.84375 C28.9063,-3.73438 28.2969,-2.54688 27.2031,-1.34375"
     id="path21718"
     style="fill:#403f4c;stroke:#403f4c" />
  <path
     class=""
     transform="matrix(0.992,0,0,0.992,1467.13,129.986)"
     d="M31.5,-8.09375 C29.7031,-11.4063 25.9063,-13.2031 21.2969,-13.2031 C17.9063,-13.2031 14.2031,-12.2031 10.5938,-10.2969 C4,-6.79688 0,-0.90625 0,4.20313 C0,5.59375 0.296875,7 1,8.29688 C2.79688,11.5938 6.59375,13.2969 11.2031,13.2969 C14.5938,13.2969 18.2969,12.4063 21.9063,10.5 C28.5,7 32.5,1.09375 32.5,-4 C32.5,-5.40625 32.2031,-6.79688 31.5,-8.09375"
     id="path21720"
     style="fill:#403f4c;stroke:#403f4c" />
  <path
     class=""
     transform="matrix(0.992,0,0,0.992,654.505,253.986)"
     d="M31.5,-8.14063 C29.7031,-11.4375 25.9063,-13.2344 21.2969,-13.2344 C17.9063,-13.2344 14.2031,-12.2344 10.5938,-10.3438 C4,-6.84375 0,-0.9375 0,4.15625 C0,5.5625 0.296875,6.96875 1,8.26563 C2.79688,11.5781 6.59375,13.2813 11.2031,13.2813 C14.5938,13.2813 18.2969,12.375 21.9063,10.4844 C28.5,6.96875 32.5,1.0625 32.5,-4.04688 C32.5,-5.4375 32.2031,-6.84375 31.5,-8.14063 M27.2031,-1.34375 C25.5,0.359375 22.0938,2.45313 18.5,4.46875 C14.9063,6.46875 11.2969,7.96875 8.90625,8.46875 C8.40625,8.57813 7.90625,8.67188 7.40625,8.67188 C5.79688,8.67188 4.59375,8.07813 3.90625,6.76563 C3.59375,6.26563 3.40625,5.67188 3.40625,5.0625 C3.40625,3.96875 4.09375,2.65625 5.20313,1.5625 C6.90625,-0.140625 10.2031,-2.23438 13.7969,-4.23438 C17.4063,-6.23438 21,-7.73438 23.4063,-8.23438 C23.9063,-8.34375 24.4063,-8.4375 24.9063,-8.4375 C26.5,-8.4375 27.7969,-7.84375 28.5,-6.54688 C28.7969,-6.04688 28.9063,-5.4375 28.9063,-4.84375 C28.9063,-3.73438 28.2969,-2.54688 27.2031,-1.34375"
     id="path21722"
     style="fill:#403f4c;stroke:#403f4c" />
  <path
     class=""
     transform="matrix(0.992,0,0,0.992,730.261,229.186)"
     d="M31.5,-8.14063 C29.7031,-11.4375 25.9063,-13.2344 21.2969,-13.2344 C17.9063,-13.2344 14.2031,-12.2344 10.5938,-10.3438 C4,-6.84375 0,-0.9375 0,4.15625 C0,5.5625 0.296875,6.96875 1,8.26563 C2.79688,11.5781 6.59375,13.2813 11.2031,13.2813 C14.5938,13.2813 18.2969,12.375 21.9063,10.4844 C28.5,6.96875 32.5,1.0625 32.5,-4.04688 C32.5,-5.4375 32.2031,-6.84375 31.5,-8.14063 M27.2031,-1.34375 C25.5,0.359375 22.0938,2.45313 18.5,4.46875 C14.9063,6.46875 11.2969,7.96875 8.90625,8.46875 C8.40625,8.57813 7.90625,8.67188 7.40625,8.67188 C5.79688,8.67188 4.59375,8.07813 3.90625,6.76563 C3.59375,6.26563 3.40625,5.67188 3.40625,5.0625 C3.40625,3.96875 4.09375,2.65625 5.20313,1.5625 C6.90625,-0.140625 10.2031,-2.23438 13.7969,-4.23438 C17.4063,-6.23438 21,-7.73438 23.4063,-8.23438 C23.9063,-8.34375 24.4063,-8.4375 24.9063,-8.4375 C26.5,-8.4375 27.7969,-7.84375 28.5,-6.54688 C28.7969,-6.04688 28.9063,-5.4375 28.9063,-4.84375 C28.9063,-3.73438 28.2969,-2.54688 27.2031,-1.34375"
     id="path21724"
     style="fill:#403f4c;stroke:#403f4c" />
  <path
     class=""
     transform="matrix(0.992,0,0,0.992,858.392,204.386)"
     d="M31.5,-8.09375 C29.7031,-11.4063 25.9063,-13.2031 21.2969,-13.2031 C17.9063,-13.2031 14.2031,-12.2031 10.5938,-10.2969 C4,-6.79688 0,-0.90625 0,4.20313 C0,5.59375 0.296875,7 1,8.29688 C2.79688,11.5938 6.59375,13.2969 11.2031,13.2969 C14.5938,13.2969 18.2969,12.4063 21.9063,10.5 C28.5,7 32.5,1.09375 32.5,-4 C32.5,-5.40625 32.2031,-6.79688 31.5,-8.09375"
     id="path21726"
     style="fill:#403f4c;stroke:#403f4c" />
  <path
     class=""
     transform="matrix(0.992,0,0,0.992,934.148,191.986)"
     d="M31.5,-8.14063 C29.7031,-11.4375 25.9063,-13.2344 21.2969,-13.2344 C17.9063,-13.2344 14.2031,-12.2344 10.5938,-10.3438 C4,-6.84375 0,-0.9375 0,4.15625 C0,5.5625 0.296875,6.96875 1,8.26563 C2.79688,11.5781 6.59375,13.2813 11.2031,13.2813 C14.5938,13.2813 18.2969,12.375 21.9063,10.4844 C28.5,6.96875 32.5,1.0625 32.5,-4.04688 C32.5,-5.4375 32.2031,-6.84375 31.5,-8.14063 M27.2031,-1.34375 C25.5,0.359375 22.0938,2.45313 18.5,4.46875 C14.9063,6.46875 11.2969,7.96875 8.90625,8.46875 C8.40625,8.57813 7.90625,8.67188 7.40625,8.67188 C5.79688,8.67188 4.59375,8.07813 3.90625,6.76563 C3.59375,6.26563 3.40625,5.67188 3.40625,5.0625 C3.40625,3.96875 4.09375,2.65625 5.20313,1.5625 C6.90625,-0.140625 10.2031,-2.23438 13.7969,-4.23438 C17.4063,-6.23438 21,-7.73438 23.4063,-8.23438 C23.9063,-8.34375 24.4063,-8.4375 24.9063,-8.4375 C26.5,-8.4375 27.7969,-7.84375 28.5,-6.54688 C28.7969,-6.04688 28.9063,-5.4375 28.9063,-4.84375 C28.9063,-3.73438 28.2969,-2.54688 27.2031,-1.34375"
     id="path21728"
     style="fill:#403f4c;stroke:#403f4c" />
  <path
     class=""
     transform="matrix(0.992,0,0,0.992,1046.61,179.586)"
     d="M31.5,-8.14063 C29.7031,-11.4375 25.9063,-13.2344 21.2969,-13.2344 C17.9063,-13.2344 14.2031,-12.2344 10.5938,-10.3438 C4,-6.84375 0,-0.9375 0,4.15625 C0,5.5625 0.296875,6.96875 1,8.26563 C2.79688,11.5781 6.59375,13.2813 11.2031,13.2813 C14.5938,13.2813 18.2969,12.375 21.9063,10.4844 C28.5,6.96875 32.5,1.0625 32.5,-4.04688 C32.5,-5.4375 32.2031,-6.84375 31.5,-8.14063 M27.2031,-1.34375 C25.5,0.359375 22.0938,2.45313 18.5,4.46875 C14.9063,6.46875 11.2969,7.96875 8.90625,8.46875 C8.40625,8.57813 7.90625,8.67188 7.40625,8.67188 C5.79688,8.67188 4.59375,8.07813 3.90625,6.76563 C3.59375,6.26563 3.40625,5.67188 3.40625,5.0625 C3.40625,3.96875 4.09375,2.65625 5.20313,1.5625 C6.90625,-0.140625 10.2031,-2.23438 13.7969,-4.23438 C17.4063,-6.23438 21,-7.73438 23.4063,-8.23438 C23.9063,-8.34375 24.4063,-8.4375 24.9063,-8.4375 C26.5,-8.4375 27.7969,-7.84375 28.5,-6.54688 C28.7969,-6.04688 28.9063,-5.4375 28.9063,-4.84375 C28.9063,-3.73438 28.2969,-2.54688 27.2031,-1.34375"
     id="path21730"
     style="fill:#403f4c;stroke:#403f4c" />
  <path
     class=""
     transform="matrix(0.992,0,0,0.992,1122.36,167.186)"
     d="M31.5,-8.14063 C29.7031,-11.4375 25.9063,-13.2344 21.2969,-13.2344 C17.9063,-13.2344 14.2031,-12.2344 10.5938,-10.3438 C4,-6.84375 0,-0.9375 0,4.15625 C0,5.5625 0.296875,6.96875 1,8.26563 C2.79688,11.5781 6.59375,13.2813 11.2031,13.2813 C14.5938,13.2813 18.2969,12.375 21.9063,10.4844 C28.5,6.96875 32.5,1.0625 32.5,-4.04688 C32.5,-5.4375 32.2031,-6.84375 31.5,-8.14063 M27.2031,-1.34375 C25.5,0.359375 22.0938,2.45313 18.5,4.46875 C14.9063,6.46875 11.2969,7.96875 8.90625,8.46875 C8.40625,8.57813 7.90625,8.67188 7.40625,8.67188 C5.79688,8.67188 4.59375,8.07813 3.90625,6.76563 C3.59375,6.26563 3.40625,5.67188 3.40625,5.0625 C3.40625,3.96875 4.09375,2.65625 5.20313,1.5625 C6.90625,-0.140625 10.2031,-2.23438 13.7969,-4.23438 C17.4063,-6.23438 21,-7.73438 23.4063,-8.23438 C23.9063,-8.34375 24.4063,-8.4375 24.9063,-8.4375 C26.5,-8.4375 27.7969,-7.84375 28.5,-6.54688 C28.7969,-6.04688 28.9063,-5.4375 28.9063,-4.84375 C28.9063,-3.73438 28.2969,-2.54688 27.2031,-1.34375"
     id="path21732"
     style="fill:#403f4c;stroke:#403f4c" />
  <path
     class=""
     transform="matrix(0.992,0,0,0.992,86.6471,439.986)"
     d="M25.4063,-25.0938 C17.7969,-25.0938 11.7031,-20.7031 11.5938,-20.7031 C5.79688,-16.4063 3.5,-11.2969 2.59375,-7.79688 C2.09375,-6 1.90625,-4.20313 1.90625,-2.5 C1.90625,-0.09375 2.29688,2.09375 3.20313,4 C4.40625,6.70313 6.70313,8.59375 9.70313,9.59375 C10.9063,10 12.2031,10.2031 13.5,10.2031 C15.7031,10.2031 18,9.59375 19.9063,8.5 C23,6.79688 24.9063,3.20313 24.9063,-0.703125 C24.9063,-4.20313 23.0938,-7.40625 20.0938,-9.29688 C18,-10.7031 16,-11.0938 14.2969,-11.0938 C13.0938,-11.0938 12,-10.9063 11.0938,-10.5938 C10.0938,-10.2031 8.40625,-9.20313 7.59375,-8.5 C7.90625,-10.4063 9.09375,-13.2969 10.2031,-14.9063 C11.2969,-16.5 13.5,-18.5 15.2031,-19.4063 C17.7031,-20.7969 20.9063,-21.4063 24.4063,-21.4063 C34.6094,-21.4063 39.6094,-13.2031 39.6094,3.59375 C39.6094,12.9063 36.1094,21.7969 33.1094,27.7031 C29.7969,34.2969 25.4063,40.6094 21.5,44.1094 C11.0938,53.6094 1.29688,58.1094 1.20313,58.1094 C1.20313,58.1094 -0.296875,59 0.09375,60.5 C0.40625,61.5 1.29688,61.7031 1.90625,61.7031 C2,61.7031 2.29688,61.6094 2.40625,61.6094 C2.5,61.6094 13.9063,56.9063 23,49.7969 C28.1094,46.1094 32.7031,42.1094 36.7031,37.7969 C40.2969,33.9063 43.4063,29.7031 45.9063,25.5 C50.2969,18 52.7969,10.2031 52.7969,3.5 C52.7969,-4.79688 50.6094,-11.7031 46.5,-16.5938 C41.7969,-22.2031 34.7031,-25.0938 25.4063,-25.0938 M56.7969,-12.4063 C56.7969,-9.59375 59,-7.40625 61.6094,-7.40625 C64.2031,-7.40625 66.4063,-9.59375 66.4063,-12.4063 C66.4063,-15.2031 64.2031,-17.5 61.6094,-17.5 C59,-17.5 56.7969,-15.2031 56.7969,-12.4063 M56.7969,12.2969 C56.7969,15.0938 59,17.4063 61.6094,17.4063 C64.2031,17.4063 66.4063,15.0938 66.4063,12.2969 C66.4063,9.5 64.2031,7.20313 61.6094,7.20313 C59,7.20313 56.7969,9.5 56.7969,12.2969"
     id="path21734"
     style="fill:#403f4c;stroke:#403f4c" />
  <path
     class=""
     transform="matrix(0.992,0,0,0.992,86.6471,229.186)"
     d="M63.3594,-5.92188 C62.125,-11.3438 59.4844,-15.1719 58.7031,-16.2031 C55.5156,-20.4844 51.5,-23.3281 46.8125,-24.6875 C43.7031,-25.5625 40.7031,-25.6875 38.2813,-25.5 C37.2344,-31.5156 36.2344,-37.3906 35.3281,-42.8438 C40.7813,-49.0156 44.4063,-54.8125 46.6875,-59.1094 C50.1563,-65.6875 51.2969,-70.2656 51.3594,-70.4688 C53.0781,-75.6875 53.4375,-83.3906 52.3281,-91.5938 C51.3281,-99.1406 49.2344,-105.859 46.875,-109.109 C45.8594,-110.531 44.7969,-111.266 43.7656,-111.266 C42.5469,-111.266 40.0313,-110.031 37.1406,-107.25 C34.8438,-105.063 31.5781,-101.172 29.0156,-95.1563 C26.0156,-88.0938 25.7969,-78.6094 26.1563,-71.8906 C26.5313,-64.6094 27.6406,-58.9219 27.6563,-58.875 C27.6719,-58.7813 27.9375,-57.2813 28.375,-54.7188 C28.1563,-54.4844 27.9063,-54.2656 27.6563,-54.0156 C26.625,-53.0156 25.4375,-51.8906 24.0469,-50.5 C23.1875,-49.6406 22.2344,-48.7344 21.2344,-47.7656 C12.7969,-39.625 0,-27.2969 0,-8.14063 C0,-3.4375 0.90625,0.984375 2.6875,5 C4.26563,8.59375 6.5625,11.875 9.5,14.75 C17.2344,22.3125 27.8281,25.5156 34.875,25.3594 C37.8281,25.2813 40.4688,25.0469 42.8594,24.5938 C44.6875,34.2031 45.8281,41.2344 45.8594,46.5781 C45.9063,53.0938 44.25,57.0781 40.3594,59.8438 C37.9219,61.5781 35.1094,62.5313 32.0156,62.6719 C29.4219,62.7969 27.1563,62.3281 25.7344,61.9219 L25.7188,61.9219 C25.7188,61.9219 25.4375,61.8281 25.4219,61.6406 C25.4063,61.4531 25.7656,61.4063 25.7656,61.4063 L25.7969,61.4063 C27.7188,60.9688 31.2813,59.7344 33.6406,56.4375 C35.4375,53.9063 36.3125,49.2813 34.4688,45.3438 C33.3594,42.9531 30.8594,40 25.2344,39.5469 C22.7344,39.3438 20.4688,39.8594 18.4688,41.0625 C16.6563,42.1406 15.1563,43.7813 14.1094,45.7813 C11.6563,50.4844 12.1094,56.2188 15.2344,60.0625 C18.2031,63.6875 22.8125,66 28.25,66.5781 C29.1094,66.6719 29.9531,66.7031 30.7969,66.7031 C35.2344,66.7031 39.625,65.5 43.2031,63.2969 C46.8594,60.7188 48.9844,56.7344 49.6563,51.1094 C50.2188,46.4688 49.8281,40.5469 48.4375,32.4688 C48.0781,30.375 47.5313,27.3438 46.875,23.5938 C52.625,21.6719 56.7813,18.0938 60.5469,12.2344 C63.8438,6.5 64.7813,0.390625 63.3594,-5.92188 M29.1406,20.2969 C24.5,19.0781 20.0625,16.5781 16.3125,13.0625 C15,11.8438 13.125,9.67188 11.6563,6.28125 C10.2969,3.10938 9.625,-0.328125 9.6875,-3.90625 C9.75,-8.60938 11.0625,-13.4375 13.5625,-18.2188 C16.4844,-23.7969 21.0469,-29.3281 27.1094,-34.6563 C28.5625,-35.9375 29.9375,-37.2188 31.2188,-38.5 C31.9844,-34.2344 32.8125,-29.5469 33.6875,-24.6719 C29.8438,-23.4063 25.0938,-20.25 21.9844,-14.5938 C18.4375,-8.03125 18.5781,-2.5 19.3125,0.984375 C20.25,5.4375 22.7813,9.20313 26.2344,11.2969 C27.1719,11.8594 31.2969,13.9844 33.1406,13.4063 C33.5156,13.2969 33.7813,13.0625 33.9219,12.7344 C34.4375,11.5625 33.4063,10.9219 31.8594,9.96875 C31.25,9.59375 30.5781,9.17188 29.8594,8.64063 C26.5313,6.15625 25.0781,1.70313 26.1563,-2.6875 C26.7344,-5.07813 28.0156,-7.25 29.8594,-8.95313 C31.5156,-10.5 33.5625,-11.5938 35.9375,-12.2344 C37.9844,-0.984375 40.0469,10.1719 41.6875,18.5313 C41.8125,19.2188 41.9531,19.8906 42.0781,20.5625 C37.7031,21.5 33.3594,21.4063 29.1406,20.2969 M40.4688,-12.9063 C50.8125,-13.375 55.0781,-5.9375 55.9688,-1.10938 C56.4375,1.4375 56.4375,5.875 54.8906,10.0938 C53.7188,13.2656 51.2656,17.3438 46.125,19.4063 C46.0625,18.9844 45.9844,18.5469 45.9063,18.125 C44.3594,9.34375 42.4219,-1.65625 40.4688,-12.9063 M33.1406,-83.8594 C34.9219,-89.5938 37.6563,-92.8438 39.6563,-94.5781 C41.4063,-96.0938 43.0469,-96.8125 43.9688,-96.8125 C44.1094,-96.8125 44.2344,-96.7813 44.3281,-96.75 C44.7969,-96.6094 45.3281,-96.0469 45.7969,-95.1719 C48.1094,-90.8906 47.3594,-84.1719 46.0156,-79.7344 C44.3906,-74.3281 41.4688,-68.7188 32.6719,-59.1094 C32.5,-60.2188 32.3438,-61.2656 32.1875,-62.25 C30.9375,-70.5313 31.2656,-77.8125 33.1406,-83.8594"
     id="path21736"
     style="fill:#403f4c;stroke:#403f4c" />
  <path
     class=""
     transform="matrix(0.992,0,0,0.992,175.95,440.118)"
     d="M3.59375,12.625 L20.7656,12.625 L20.7656,20.0781 L12.5469,20.0781 C11.7656,20.0781 11.125,20.7031 11.125,21.4844 L11.125,23.3906 C11.125,24.1719 11.7656,24.7969 12.5469,24.7969 L42.7969,24.7969 C43.5781,24.7969 44.2031,24.1719 44.2031,23.3906 L44.2031,21.4844 C44.2031,20.7031 43.5781,20.0781 42.7969,20.0781 L33.8594,20.0781 L33.8594,12.625 L42.7969,12.625 C43.5781,12.625 44.2031,12 44.2031,11.2188 L44.2031,9.3125 C44.2031,8.53125 43.5781,7.90625 42.7969,7.90625 L33.8594,7.90625 L33.8594,-8.0625 C33.8594,-8.59375 33.5469,-9.07813 33.0781,-9.3125 L31.8594,-9.92188 C31.3281,-10.1719 30.7031,-10.0781 30.2656,-9.6875 L21.2188,-1.375 C20.9375,-1.09375 20.7656,-0.734375 20.7656,-0.328125 L20.7656,7.90625 L9.25,7.90625 C9.25,7.90625 20.375,-4.125 32.2188,-19.8906 C33.0781,-21.0469 32.5781,-22.0938 32.3906,-22.2813 L30.2188,-24.4844 C29.9531,-24.75 29.5938,-24.9063 29.2188,-24.9063 C28.625,-24.9063 15.0625,-24.875 14.3438,-24.9063 C13.625,-24.9219 13.0938,-24.2969 13.0156,-23.6875 C13.0156,-23.6875 12.4844,-16.3281 9.875,-8.1875 C7.28125,-0.078125 4.34375,4.90625 1.6875,8.53125 C1.6875,8.53125 1.14063,9.51563 1.5,10.2656 C1.84375,11.0156 2.48438,12.0938 2.48438,12.0938 C2.48438,12.0938 2.73438,12.625 3.59375,12.625"
     id="path21738"
     style="fill:#403f4c;stroke:#403f4c" />
  <path
     class=""
     transform="matrix(0.992,0,0,0.992,175.95,489.455)"
     d="M3.59375,12.625 L20.7656,12.625 L20.7656,20.0781 L12.5469,20.0781 C11.7656,20.0781 11.125,20.7031 11.125,21.4844 L11.125,23.3906 C11.125,24.1719 11.7656,24.7969 12.5469,24.7969 L42.7969,24.7969 C43.5781,24.7969 44.2031,24.1719 44.2031,23.3906 L44.2031,21.4844 C44.2031,20.7031 43.5781,20.0781 42.7969,20.0781 L33.8594,20.0781 L33.8594,12.625 L42.7969,12.625 C43.5781,12.625 44.2031,12 44.2031,11.2188 L44.2031,9.3125 C44.2031,8.53125 43.5781,7.90625 42.7969,7.90625 L33.8594,7.90625 L33.8594,-8.0625 C33.8594,-8.59375 33.5469,-9.07813 33.0781,-9.3125 L31.8594,-9.92188 C31.3281,-10.1719 30.7031,-10.0781 30.2656,-9.6875 L21.2188,-1.375 C20.9375,-1.09375 20.7656,-0.734375 20.7656,-0.328125 L20.7656,7.90625 L9.25,7.90625 C9.25,7.90625 20.375,-4.125 32.2188,-19.8906 C33.0781,-21.0469 32.5781,-22.0938 32.3906,-22.2813 L30.2188,-24.4844 C29.9531,-24.75 29.5938,-24.9063 29.2188,-24.9063 C28.625,-24.9063 15.0625,-24.875 14.3438,-24.9063 C13.625,-24.9219 13.0938,-24.2969 13.0156,-23.6875 C13.0156,-23.6875 12.4844,-16.3281 9.875,-8.1875 C7.28125,-0.078125 4.34375,4.90625 1.6875,8.53125 C1.6875,8.53125 1.14063,9.51563 1.5,10.2656 C1.84375,11.0156 2.48438,12.0938 2.48438,12.0938 C2.48438,12.0938 2.73438,12.625 3.59375,12.625"
     id="path21740"
     style="fill:#403f4c;stroke:#403f4c" />
  <path
     class=""
     transform="matrix(0.992,0,0,0.992,175.95,179.718)"
     d="M3.59375,12.625 L20.7656,12.625 L20.7656,20.0781 L12.5469,20.0781 C11.7656,20.0781 11.125,20.7031 11.125,21.4844 L11.125,23.3906 C11.125,24.1719 11.7656,24.7969 12.5469,24.7969 L42.7969,24.7969 C43.5781,24.7969 44.2031,24.1719 44.2031,23.3906 L44.2031,21.4844 C44.2031,20.7031 43.5781,20.0781 42.7969,20.0781 L33.8594,20.0781 L33.8594,12.625 L42.7969,12.625 C43.5781,12.625 44.2031,12 44.2031,11.2188 L44.2031,9.3125 C44.2031,8.53125 43.5781,7.90625 42.7969,7.90625 L33.8594,7.90625 L33.8594,-8.0625 C33.8594,-8.59375 33.5469,-9.07813 33.0781,-9.3125 L31.8594,-9.92188 C31.3281,-10.1719 30.7031,-10.0781 30.2656,-9.6875 L21.2188,-1.375 C20.9375,-1.09375 20.7656,-0.734375 20.7656,-0.328125 L20.7656,7.90625 L9.25,7.90625 C9.25,7.90625 20.375,-4.125 32.2188,-19.8906 C33.0781,-21.0469 32.5781,-22.0938 32.3906,-22.2813 L30.2188,-24.4844 C29.9531,-24.75 29.5938,-24.9063 29.2188,-24.9063 C28.625,-24.9063 15.0625,-24.875 14.3438,-24.9063 C13.625,-24.9219 13.0938,-24.2969 13.0156,-23.6875 C13.0156,-23.6875 12.4844,-16.3281 9.875,-8.1875 C7.28125,-0.078125 4.34375,4.90625 1.6875,8.53125 C1.6875,8.53125 1.14063,9.51563 1.5,10.2656 C1.84375,11.0156 2.48438,12.0938 2.48438,12.0938 C2.48438,12.0938 2.73438,12.625 3.59375,12.625"
     id="path21742"
     style="fill:#403f4c;stroke:#403f4c" />
  <path
     class=""
     transform="matrix(0.992,0,0,0.992,175.95,229.055)"
     d="M3.59375,12.625 L20.7656,12.625 L20.7656,20.0781 L12.5469,20.0781 C11.7656,20.0781 11.125,20.7031 11.125,21.4844 L11.125,23.3906 C11.125,24.1719 11.7656,24.7969 12.5469,24.7969 L42.7969,24.7969 C43.5781,24.7969 44.2031,24.1719 44.2031,23.3906 L44.2031,21.4844 C44.2031,20.7031 43.5781,20.0781 42.7969,20.0781 L33.8594,20.0781 L33.8594,12.625 L42.7969,12.625 C43.5781,12.625 44.2031,12 44.2031,11.2188 L44.2031,9.3125 C44.2031,8.53125 43.5781,7.90625 42.7969,7.90625 L33.8594,7.90625 L33.8594,-8.0625 C33.8594,-8.59375 33.5469,-9.07813 33.0781,-9.3125 L31.8594,-9.92188 C31.3281,-10.1719 30.7031,-10.0781 30.2656,-9.6875 L21.2188,-1.375 C20.9375,-1.09375 20.7656,-0.734375 20.7656,-0.328125 L20.7656,7.90625 L9.25,7.90625 C9.25,7.90625 20.375,-4.125 32.2188,-19.8906 C33.0781,-21.0469 32.5781,-22.0938 32.3906,-22.2813 L30.2188,-24.4844 C29.9531,-24.75 29.5938,-24.9063 29.2188,-24.9063 C28.625,-24.9063 15.0625,-24.875 14.3438,-24.9063 C13.625,-24.9219 13.0938,-24.2969 13.0156,-23.6875 C13.0156,-23.6875 12.4844,-16.3281 9.875,-8.1875 C7.28125,-0.078125 4.34375,4.90625 1.6875,8.53125 C1.6875,8.53125 1.14063,9.51563 1.5,10.2656 C1.84375,11.0156 2.48438,12.0938 2.48438,12.0938 C2.48438,12.0938 2.73438,12.625 3.59375,12.625"
     id="path21744"
     style="fill:#403f4c;stroke:#403f4c" />
  <path
     class=""
     transform="matrix(3.596,0,0,3.596,29.9762,514.386)"
     d="M0.921875,-50 C2.6875,-51.8906 6.20313,-55.7969 6.20313,-63 C6.20313,-72.1094 2.26563,-81.3281 2.26563,-86.9688 C2.26563,-93.0625 5.84375,-98.8438 5.95313,-99 C6.0625,-99.1719 6.04688,-99.3906 5.9375,-99.4688 C5.82813,-99.5313 5.625,-99.4688 5.48438,-99.3281 C5.35938,-99.1719 0,-93.75 0,-85.6094 C0,-76.75 3.5,-70.5781 3.5,-59.0781 C3.5,-56.8906 2.5625,-53.3594 0.09375,-50.3281 C-0.078125,-50.1719 -0.09375,-49.8906 0.0625,-49.7031 L0.0625,-49.6875 L0.09375,-49.6563 C2.5625,-46.625 3.5,-43.1094 3.5,-40.9219 C3.5,-29.4063 0,-23.2344 0,-14.3906 C0,-6.25 5.35938,-0.796875 5.48438,-0.65625 C5.625,-0.515625 5.79688,-0.4375 5.9375,-0.515625 C6.07813,-0.609375 6.07813,-0.78125 5.95313,-0.984375 C5.8125,-1.1875 2.26563,-6.92188 2.26563,-13.0156 C2.26563,-18.6563 6.20313,-27.9063 6.20313,-37 C6.20313,-44.2969 2.6875,-48.125 0.921875,-50"
     id="path21746"
     style="fill:#403f4c;stroke:#403f4c" />
  <metadata
     id="metadata21997">
    <rdf:RDF>
      <cc:Work
         rdf:about="">
        <dc:title>Sin título</dc:title>
      </cc:Work>
    </rdf:RDF>
  </metadata>
  <g
     inkscape:groupmode="layer"
     id="layer1"
     inkscape:label="Layer 1" />
</svg>
